<svg width="30" height="30" viewBox="0 0 30 30" fill="none" xmlns="http://www.w3.org/2000/svg">
<g clip-path="url(#clip0_1_3450)">
<path d="M13.75 18.75C11.6825 18.75 10 17.0675 10 15C10 12.9325 11.6825 11.25 13.75 11.25H20V3.4375C20 1.54125 18.4587 0 16.5625 0H3.4375C1.54125 0 0 1.54125 0 3.4375V26.5625C0 28.4587 1.54125 30 3.4375 30H16.5625C18.4587 30 20 28.4587 20 26.5625V18.75H13.75Z" fill="#666666"/>
<path d="M23.2713 21.155C22.805 20.9612 22.5 20.505 22.5 20V16.25H13.75C13.06 16.25 12.5 15.69 12.5 15C12.5 14.31 13.06 13.75 13.75 13.75H22.5V9.99999C22.5 9.49499 22.805 9.03874 23.2713 8.84499C23.7388 8.65124 24.2763 8.75874 24.6338 9.11624L29.6338 14.1162C30.1225 14.605 30.1225 15.395 29.6338 15.8837L24.6338 20.8837C24.2763 21.2412 23.7388 21.3487 23.2713 21.155Z" fill="#666666"/>
</g>
<defs>
<clipPath id="clip0_1_3450">
<rect width="30" height="30" fill="white"/>
</clipPath>
</defs>
</svg>
