<svg width="30" height="30" viewBox="0 0 30 30" fill="none" xmlns="http://www.w3.org/2000/svg">
<path d="M25.2702 23.5743C24.666 21.7761 22.2579 20.6505 20.541 19.896C19.8684 19.6014 18.0063 19.1016 17.7825 18.2547C17.7024 17.9496 17.7132 17.6619 17.7789 17.3862C17.6754 17.406 17.5704 17.4177 17.4618 17.4177H16.3431C15.45 17.4177 14.7243 16.6911 14.7243 15.7986C14.7243 14.9067 15.4503 14.1816 16.3431 14.1816H17.4618C17.8314 14.1816 18.1818 14.3067 18.4644 14.5299C18.8787 14.4747 19.2783 14.3862 19.6509 14.2701C20.1402 13.245 20.5218 12.0192 20.6073 10.9641C20.9724 6.44969 18.2049 3.80849 14.2368 4.26509C11.3517 4.59719 9.62821 6.74849 9.44191 9.51809C9.25351 12.3411 10.3002 14.4261 11.412 15.9555C11.8989 16.6242 12.4104 17.0541 12.3318 17.8599C12.2406 18.8127 11.2218 19.0782 10.4931 19.371C9.62971 19.7178 8.69971 20.244 8.26051 20.4873C6.74761 21.3228 5.08711 22.329 4.71391 23.7054C3.88741 26.7558 6.67861 27.6798 8.98291 28.1064C10.9605 28.4712 13.1904 28.5 15.0246 28.5C18.3423 28.5 24.3081 28.3671 25.2702 25.8732C25.5438 25.1655 25.4265 24.0378 25.2702 23.5743V23.5743Z" fill="#666666"/>
<path d="M18.1698 15.3429C18.018 15.1116 17.7585 14.958 17.4624 14.958H16.3437C15.8769 14.958 15.5004 15.3351 15.5004 15.7995C15.5004 16.2657 15.8769 16.6434 16.3437 16.6434H17.4624C17.7891 16.6434 18.0663 16.4571 18.2061 16.1877C19.7658 16.065 21.1224 15.5886 22.0746 14.8851C22.2933 15.0261 22.5519 15.1086 22.8309 15.1086H22.9011C23.6787 15.1086 24.3075 14.4792 24.3075 13.7007V10.8903C24.3075 10.3305 23.9793 9.8475 23.5059 9.6231C23.2995 5.1102 19.5636 1.5 15 1.5C10.4364 1.5 6.6999 5.1102 6.4944 9.6231C6.0201 9.8478 5.6922 10.3305 5.6922 10.8903V13.7007C5.6922 14.4792 6.3216 15.1086 7.0974 15.1086H7.1685C7.9449 15.1086 8.5746 14.4792 8.5746 13.7007V10.8903C8.5746 10.3386 8.2557 9.8628 7.7922 9.6327C7.9929 5.8302 11.1483 2.7993 15 2.7993C18.8502 2.7993 22.0071 5.8302 22.2069 9.6327C21.744 9.8631 21.4254 10.3386 21.4254 10.8903V13.7007C21.4254 13.8873 21.4617 14.061 21.5256 14.2233C20.706 14.8098 19.5129 15.2277 18.1698 15.3429V15.3429Z" fill="#666666"/>
</svg>
